# xmcd
#
# Track frame offsets: 
#        150
#        14268
#        24958
#        42007
#        59264
#        73865
#        88840
#        106050
#        121689
#        139039
#        156879
#
# Disc length: 2341 seconds
#
# Revision: 0
# Processed by: cddbd v1.5.2PL0 Copyright (c) Steve Scherf et al.
# Submitted via: ExactAudioCopy v1.0b4
#
DISCID=8409230b
DTITLE=Ricky Nye - Swingin' Some Blues
DYEAR=2014
DGENRE=Blues
TTITLE0=Please Don't Talk About Me When I'm Gone
TTITLE1=Baby Won't You Please Come Home
TTITLE2=Nobody Knows You When You're Down and Out
TTITLE3=Low and Slow
TTITLE4=The Rocks
TTITLE5=Davenport Stomp
TTITLE6=Monday Struggle
TTITLE7=Let's Have A Ball
TTITLE8=Pleasure
TTITLE9=It's Wrong
TTITLE10=Epididymitis Boogie
EXTD=
EXTT0=
EXTT1=
EXTT2=
EXTT3=
EXTT4=
EXTT5=
EXTT6=
EXTT7=
EXTT8=
EXTT9=
EXTT10=
PLAYORDER=
